<?xml version="1.0" encoding="UTF-8" standalone="no"?>
<svg
   xmlns:dc="http://purl.org/dc/elements/1.1/"
   xmlns:cc="http://creativecommons.org/ns#"
   xmlns:rdf="http://www.w3.org/1999/02/22-rdf-syntax-ns#"
   xmlns:svg="http://www.w3.org/2000/svg"
   xmlns="http://www.w3.org/2000/svg"
   xmlns:sodipodi="http://sodipodi.sourceforge.net/DTD/sodipodi-0.dtd"
   xmlns:inkscape="http://www.inkscape.org/namespaces/inkscape"
   width="585"
   height="245"
   viewBox="0 0 585 245"
   fill="none"
   version="1.1"
   id="svg224"
   sodipodi:docname="header3.svg"
   inkscape:version="0.92.3 (2405546, 2018-03-11)">
  <metadata
     id="metadata228">
    <rdf:RDF>
      <cc:Work
         rdf:about="">
        <dc:format>image/svg+xml</dc:format>
        <dc:type
           rdf:resource="http://purl.org/dc/dcmitype/StillImage" />
      </cc:Work>
    </rdf:RDF>
  </metadata>
  <sodipodi:namedview
     pagecolor="#ffffff"
     bordercolor="#666666"
     borderopacity="1"
     objecttolerance="10"
     gridtolerance="10"
     guidetolerance="10"
     inkscape:pageopacity="0"
     inkscape:pageshadow="2"
     inkscape:window-width="1853"
     inkscape:window-height="1025"
     id="namedview226"
     showgrid="false"
     inkscape:zoom="0.82677101"
     inkscape:cx="134.95673"
     inkscape:cy="42.080006"
     inkscape:window-x="67"
     inkscape:window-y="27"
     inkscape:window-maximized="1"
     inkscape:current-layer="svg224" />
  <rect
     x="336.97302"
     y="50.952103"
     width="19.3563"
     height="200"
     id="rect2"
     style="fill:url(#paint0_linear)" />
  <ellipse
     cx="346.71201"
     cy="50.919701"
     rx="9.6127796"
     ry="4.8063898"
     id="ellipse4"
     style="fill:#ffffff" />
  <rect
     x="373.80499"
     y="59.959"
     width="19.522301"
     height="200"
     id="rect6"
     style="fill:url(#paint1_linear)" />
  <ellipse
     cx="383.54401"
     cy="60.328903"
     rx="9.6127796"
     ry="4.8063998"
     id="ellipse8"
     style="fill:#ffffff" />
  <rect
     x="234.5"
     y="54.473602"
     width="25.0494"
     height="200"
     id="rect10"
     style="fill:url(#paint2_linear)" />
  <ellipse
     cx="247.06799"
     cy="54.414001"
     rx="12.4042"
     ry="6.2021198"
     id="ellipse12"
     style="fill:#ffffff" />
  <rect
     x="191"
     y="68"
     width="34"
     height="200"
     id="rect14"
     style="fill:url(#paint3_linear)" />
  <ellipse
     cx="208"
     cy="67.5"
     rx="17"
     ry="8.5"
     id="ellipse16"
     style="fill:#ffffff" />
  <rect
     y="105.0693"
     width="60.7771"
     height="200"
     id="rect18"
     style="fill:url(#paint4_linear)"
     x="120" />
  <ellipse
     cx="150.49469"
     cy="104.7278"
     rx="30.096201"
     ry="15.0481"
     id="ellipse20"
     style="fill:#ffffff" />
  <rect
     x="250.672"
     y="99.7314"
     width="107.029"
     height="200"
     id="rect22"
     style="fill:url(#paint5_linear)" />
  <ellipse
     cx="304.186"
     cy="99.731903"
     rx="53.514599"
     ry="26.757299"
     id="ellipse24"
     style="fill:#ffffff" />
  <path
     d="m 284.598,104.4051 -3.576,-1.8981 c -3.469,-1.8421 -3.322,-6.8629 0.25,-8.4983 l 20.914,-9.5758 c 1.283,-0.5872 2.761,-0.5728 4.032,0.0394 l 19.872,9.5726 c 3.46,1.6662 3.607,6.5383 0.255,8.4105 l -2.747,1.5341 c -12.086,6.7506 -26.773,6.9071 -39,0.4156 z"
     id="path26"
     inkscape:connector-curvature="0"
     style="fill:#e5deee" />
  <rect
     x="405.11301"
     y="92.042"
     width="60.7771"
     height="200"
     id="rect28"
     style="fill:url(#paint6_linear)" />
  <ellipse
     cx="435.608"
     cy="91.7005"
     rx="30.0963"
     ry="15.0481"
     id="ellipse30"
     style="fill:#ffffff" />
  <path
     d="m 384.84,253.871 14.09,6.832 v -6.832 l -14.09,-6.832 z"
     id="path32"
     inkscape:connector-curvature="0"
     style="fill:#ffffff;fill-opacity:0.4" />
  <path
     d="m 398.932,260.702 68.743,-34.016 v -6.832 l -68.743,34.016 z"
     id="path34"
     inkscape:connector-curvature="0"
     style="fill:#bfafd5" />
  <path
     d="m 384.84,247.039 14.09,6.832 68.744,-34.016 -14.091,-6.832 z"
     id="path36"
     inkscape:connector-curvature="0"
     style="fill:#ffffff" />
  <path
     d="m 404.768,276.643 14.09,6.831 v -6.831 l -14.09,-6.832 z"
     id="path38"
     inkscape:connector-curvature="0"
     style="fill:#efefef" />
  <path
     d="m 418.857,283.475 68.744,-34.016 v -6.832 l -68.744,34.016 z"
     id="path40"
     inkscape:connector-curvature="0"
     style="fill:#bfafd5" />
  <path
     d="m 404.768,269.811 14.09,6.831 68.743,-34.015 -14.09,-6.832 z"
     id="path42"
     inkscape:connector-curvature="0"
     style="fill:#ffffff" />
  <path
     d="m 305.137,162.781 14.09,6.832 v -6.832 l -14.09,-6.831 z"
     id="path44"
     inkscape:connector-curvature="0"
     style="fill:#ded5e9" />
  <path
     d="m 319.227,169.613 68.743,-34.016 v -6.8314 l -68.743,34.0164 z"
     id="path46"
     inkscape:connector-curvature="0"
     style="fill:#bfafd5" />
  <path
     d="m 305.137,155.95 14.09,6.831 68.743,-34.0157 -14.09,-6.8317 z"
     id="path48"
     inkscape:connector-curvature="0"
     style="fill:#ffffff" />
  <path
     d="m 325.062,185.554 14.091,6.831 v -6.831 l -14.091,-6.832 z"
     id="path50"
     inkscape:connector-curvature="0"
     style="fill:#ded5e9" />
  <path
     d="m 339.152,192.386 68.744,-34.016 v -6.832 l -68.744,34.016 z"
     id="path52"
     inkscape:connector-curvature="0"
     style="fill:#bfafd5" />
  <path
     d="m 325.062,178.722 14.091,6.832 68.743,-34.016 -14.09,-6.832 z"
     id="path54"
     inkscape:connector-curvature="0"
     style="fill:#ffffff" />
  <path
     d="m 344.988,208.326 14.091,6.832 v -6.832 l -14.091,-6.832 z"
     id="path56"
     inkscape:connector-curvature="0"
     style="fill:#ded5e9" />
  <path
     d="m 359.08,215.158 68.744,-34.016 v -6.831 l -68.744,34.016 z"
     id="path58"
     inkscape:connector-curvature="0"
     style="fill:#bfafd5" />
  <path
     d="m 344.988,201.494 14.091,6.832 68.743,-34.016 -14.09,-6.831 z"
     id="path60"
     inkscape:connector-curvature="0"
     style="fill:#ffffff" />
  <path
     d="m 364.916,231.098 14.09,6.831 v -6.831 l -14.09,-6.832 z"
     id="path62"
     inkscape:connector-curvature="0"
     style="fill:#ffffff;fill-opacity:0.4" />
  <path
     d="m 379.006,237.93 68.743,-34.016 v -6.832 l -68.743,34.016 z"
     id="path64"
     inkscape:connector-curvature="0"
     style="fill:#bfafd5" />
  <path
     d="m 364.916,224.266 14.09,6.832 68.744,-34.016 -14.09,-6.832 z"
     id="path66"
     inkscape:connector-curvature="0"
     style="fill:#ffffff" />
  <rect
     x="176.13092"
     y="167.77699"
     width="88.770897"
     height="200"
     id="rect68"
     style="fill:url(#paint7_linear)" />
  <ellipse
     cx="220.452"
     cy="167.745"
     rx="44.321602"
     ry="22.160801"
     id="ellipse70"
     style="fill:#ffffff" />
  <ellipse
     rx="1.5730402"
     ry="2.2990611"
     transform="matrix(-0.91511587,0.40319094,0.40319383,0.9151146,0,0)"
     id="ellipse72"
     cx="-250.98917"
     cy="214.92142"
     style="fill:#313131" />
  <path
     d="m 315.32,93.4328 -1.791,0.7893 1.854,4.2078 1.84,-0.847 z"
     id="path74"
     inkscape:connector-curvature="0"
     style="fill:#313131" />
  <ellipse
     rx="1.5730304"
     ry="2.2990408"
     transform="matrix(-0.91511677,0.4031889,0.40319587,0.9151137,0,0)"
     id="ellipse76"
     cx="-249.0878"
     cy="214.99167"
     style="fill:#878787" />
  <ellipse
     rx="0.84702373"
     ry="1.33104"
     transform="matrix(-0.91511534,0.40319215,0.40319299,0.91511497,0,0)"
     id="ellipse78"
     cx="-249.08929"
     cy="214.99281"
     style="fill:#313131" />
  <ellipse
     rx="1.5730398"
     ry="2.2990589"
     transform="matrix(0.91511317,0.40319708,-0.40318723,0.91511751,0,0)"
     id="ellipse80"
     cx="308.92374"
     cy="-31.772959"
     style="fill:#313131" />
  <path
     d="m 296.468,93.4685 1.792,0.7893 -1.854,4.2078 -1.808,-0.882 z"
     id="path82"
     inkscape:connector-curvature="0"
     style="fill:#313131" />
  <ellipse
     rx="1.5730398"
     ry="2.2990496"
     transform="matrix(0.91511714,0.40318806,-0.40319708,0.91511317,0,0)"
     id="ellipse84"
     cx="310.82489"
     cy="-31.69932"
     style="fill:#878787" />
  <ellipse
     rx="0.84701914"
     ry="1.3310394"
     transform="matrix(0.9151119,0.40319996,-0.40318518,0.91511841,0,0)"
     id="ellipse86"
     cx="310.82376"
     cy="-31.702812"
     style="fill:#313131" />
  <ellipse
     cx="320.35559"
     cy="-48.443134"
     rx="1.57303"
     ry="2.2990501"
     transform="rotate(23.7779)"
     id="ellipse88"
     style="fill:#313131" />
  <path
     d="m 313.652,82.821 1.791,0.7894 -1.854,4.2078 -1.808,-0.8821 z"
     id="path90"
     inkscape:connector-curvature="0"
     style="fill:#313131" />
  <ellipse
     rx="1.5730397"
     ry="2.2990599"
     transform="matrix(0.91511624,0.40319011,-0.40319503,0.91511407,0,0)"
     id="ellipse92"
     cx="322.25635"
     cy="-48.371727"
     style="fill:#878787" />
  <ellipse
     rx="0.84702426"
     ry="1.3310405"
     transform="matrix(0.91511677,0.4031889,-0.40319587,0.9151137,0,0)"
     id="ellipse94"
     cx="322.25543"
     cy="-48.370689"
     style="fill:#313131" />
  <ellipse
     rx="1.5730399"
     ry="2.2990594"
     transform="matrix(-0.91511407,0.40319503,0.40319011,0.91511624,0,0)"
     id="ellipse96"
     cx="-238.89658"
     cy="197.95976"
     style="fill:#313131" />
  <path
     d="m 297.477,82.8208 -1.792,0.7893 1.854,4.2078 1.779,-0.882 z"
     id="path98"
     inkscape:connector-curvature="0"
     style="fill:#313131" />
  <ellipse
     rx="1.5730398"
     ry="2.2990596"
     transform="matrix(-0.91511317,0.40319708,0.40318806,0.91511714,0,0)"
     id="ellipse100"
     cx="-236.99603"
     cy="198.03073"
     style="fill:#878787" />
  <ellipse
     rx="0.84701878"
     ry="1.3310399"
     transform="matrix(-0.91511624,0.40319011,0.40319503,0.91511407,0,0)"
     id="ellipse102"
     cx="-236.99483"
     cy="198.02882"
     style="fill:#313131" />
  <path
     d="m 317.587,94.8011 -11.858,-7.3812 0.001,-3.8721 8.227,-2.6621 1.936,0.9681 -7.018,3.6301 1.114,0.7622 10.26,7.224 z"
     id="path104"
     style="fill:url(#paint8_linear)"
     inkscape:connector-curvature="0" />
  <path
     d="m 293.629,94.6801 12.1,-7.2602 0.001,-3.8721 -8.592,-2.6621 -2.057,0.9681 7.139,3.6301 -1.096,0.75 -10.399,7.1151 z"
     id="path106"
     style="fill:url(#paint9_linear)"
     inkscape:connector-curvature="0" />
  <path
     d="m 309.987,86.2459 5.905,-3.1824 v -1.21 l -7.019,3.6301 z"
     id="path108"
     inkscape:connector-curvature="0"
     style="fill:#878787" />
  <path
     d="m 293.627,96.1319 12.1,-7.2602 v -1.452 l -12.1,7.2601 z"
     id="path110"
     inkscape:connector-curvature="0"
     style="fill:#878787" />
  <path
     d="m 317.586,96.1319 2.662,-1.4521 v -1.21 l -2.662,1.331 z"
     id="path112"
     inkscape:connector-curvature="0"
     style="fill:#878787" />
  <path
     d="m 290.725,94.6797 2.904,1.452 v -1.452 l -2.904,-1.3311 z"
     id="path114"
     inkscape:connector-curvature="0"
     style="fill:#313131" />
  <path
     d="m 295.08,83.0635 6.043,3.1701 1.096,-0.75 -7.139,-3.6301 z"
     id="path116"
     inkscape:connector-curvature="0"
     style="fill:#313131" />
  <path
     d="m 305.728,88.8717 11.859,7.2602 v -1.3311 l -11.859,-7.3811 z"
     id="path118"
     inkscape:connector-curvature="0"
     style="fill:#313131" />
  <path
     d="m 308.39,85.4834 h -5.808 v -3.8721 h 5.808 z"
     id="path120"
     style="fill:url(#paint10_linear)"
     inkscape:connector-curvature="0" />
  <path
     d="m 308.391,81.7302 c 0,0.7338 -1.301,1.3287 -2.904,1.3287 -1.604,0 -2.905,-0.5949 -2.905,-1.3287 0,-0.7337 1.301,-1.3286 2.905,-1.3286 1.603,0 2.904,0.5949 2.904,1.3286 z"
     id="path122"
     inkscape:connector-curvature="0"
     style="fill:#676767" />
  <path
     d="m 302.582,85.6021 c 0,-0.7338 1.3,-1.3287 2.904,-1.3287 1.604,0 2.904,0.5949 2.904,1.3287 0,0.7338 -1.3,1.3287 -2.904,1.3287 -1.604,0 -2.904,-0.5949 -2.904,-1.3287 z"
     id="path124"
     style="fill:url(#paint11_linear)"
     inkscape:connector-curvature="0" />
  <path
     d="m 307.425,81.4669 h -3.872 V 72.415 h 3.872 z"
     id="path126"
     style="fill:url(#paint12_linear)"
     inkscape:connector-curvature="0" />
  <path
     d="m 303.553,81.4669 c 0,-0.4807 0.867,-0.8704 1.936,-0.8704 1.069,0 1.936,0.3897 1.936,0.8704 0,0.4807 -0.867,0.8704 -1.936,0.8704 -1.069,0 -1.936,-0.3897 -1.936,-0.8704 z"
     id="path128"
     style="fill:url(#paint13_linear)"
     inkscape:connector-curvature="0" />
  <path
     d="m 308.148,78.7072 h -5.324 v -4.9611 h 5.324 z"
     id="path130"
     inkscape:connector-curvature="0"
     style="fill:#595959" />
  <path
     d="m 302.824,78.7072 c 0,-0.6683 1.192,-1.21 2.662,-1.21 1.471,0 2.662,0.5417 2.662,1.21 0,0.6683 -1.191,1.21 -2.662,1.21 -1.47,0 -2.662,-0.5417 -2.662,-1.21 z"
     id="path132"
     inkscape:connector-curvature="0"
     style="fill:#595959" />
  <path
     d="m 329.93,65.6388 -18.15,-9.1962 -19.317,9.4382 18.151,9.1963 z"
     id="path134"
     inkscape:connector-curvature="0"
     style="fill:#804dbf" />
  <path
     d="M 310.328,32.726018 308.271,32 l -19.317,9.43823 2.057,0.72597 z"
     id="path136"
     inkscape:connector-curvature="0"
     style="fill:#804dbf" />
  <path
     d="m 311.78,35.38863 -1.452,-2.662068 -19.316,9.438238 1.452,2.6621 z"
     id="path138"
     inkscape:connector-curvature="0"
     style="fill:#a784d2" />
  <path
     d="m 330.535,67.6957 -0.605,-2.057 -19.317,9.4382 0.605,2.0571 z"
     id="path140"
     inkscape:connector-curvature="0"
     style="fill:#a784d2" />
  <path
     d="m 291.011,42.1645 -2.057,-0.72602 -1.013,1.69402 1.013,9.9223 -1.013,7.2601 0.605,7.7442 19.725,10.0433 2.343,0.847 0.605,-1.815 -0.605,-2.0571 -18.151,-9.1962 -1.089,-5.0821 1.331,-7.1392 -0.242,-8.8332 z"
     id="path142"
     inkscape:connector-curvature="0"
     style="fill:#3c225d" />
  <path
     d="m 310.691,51.3609 1.331,-7.1392 -19.316,9.4382 -1.331,7.1392 z"
     id="path144"
     inkscape:connector-curvature="0"
     style="fill:#542f82" />
  <path
     d="m 311.78,56.4425 -1.089,-5.0821 -19.316,9.4382 1.089,5.0821 z"
     id="path146"
     inkscape:connector-curvature="0"
     style="fill:#a784d2" />
  <path
     d="m 312.021,44.2209 -0.242,-8.8332 -19.316,9.4382 0.242,8.8332 z"
     id="path148"
     inkscape:connector-curvature="0"
     style="fill:#603695" />
  <path
     d="m 329.93,69.5105 0.605,-1.815 -19.317,9.4382 -0.605,1.8151 z"
     id="path150"
     inkscape:connector-curvature="0"
     style="fill:#603695" />
  <defs
     id="defs222">
    <linearGradient
       id="paint0_linear"
       x1="226.651"
       y1="18.9521"
       x2="226.651"
       y2="218.952"
       gradientUnits="userSpaceOnUse"
       gradientTransform="translate(120,32)">
      <stop
         stop-color="white"
         id="stop152" />
      <stop
         offset="1"
         stop-color="#542F82"
         id="stop154" />
    </linearGradient>
    <linearGradient
       id="paint1_linear"
       x1="263.566"
       y1="27.959"
       x2="263.566"
       y2="227.959"
       gradientUnits="userSpaceOnUse"
       gradientTransform="translate(120,32)">
      <stop
         stop-color="white"
         id="stop157" />
      <stop
         offset="1"
         stop-color="#542F82"
         id="stop159" />
    </linearGradient>
    <linearGradient
       id="paint2_linear"
       x1="127.025"
       y1="22.4736"
       x2="127.025"
       y2="222.474"
       gradientUnits="userSpaceOnUse"
       gradientTransform="translate(120,32)">
      <stop
         stop-color="white"
         id="stop162" />
      <stop
         offset="1"
         stop-color="#542F82"
         id="stop164" />
    </linearGradient>
    <linearGradient
       id="paint3_linear"
       x1="88"
       y1="36"
       x2="88"
       y2="236"
       gradientUnits="userSpaceOnUse"
       gradientTransform="translate(120,32)">
      <stop
         stop-color="white"
         id="stop167" />
      <stop
         offset="1"
         stop-color="#542F82"
         id="stop169" />
    </linearGradient>
    <linearGradient
       id="paint4_linear"
       x1="30.3885"
       y1="73.0693"
       x2="30.3885"
       y2="273.069"
       gradientUnits="userSpaceOnUse"
       gradientTransform="translate(120,32)">
      <stop
         stop-color="white"
         id="stop172" />
      <stop
         offset="1"
         stop-color="#542F82"
         id="stop174" />
    </linearGradient>
    <linearGradient
       id="paint5_linear"
       x1="184.186"
       y1="67.7314"
       x2="184.186"
       y2="267.731"
       gradientUnits="userSpaceOnUse"
       gradientTransform="translate(120,32)">
      <stop
         stop-color="white"
         id="stop177" />
      <stop
         offset="1"
         stop-color="#542F82"
         id="stop179" />
    </linearGradient>
    <linearGradient
       id="paint6_linear"
       x1="315.502"
       y1="60.042"
       x2="315.502"
       y2="260.042"
       gradientUnits="userSpaceOnUse"
       gradientTransform="translate(120,32)">
      <stop
         stop-color="white"
         id="stop182" />
      <stop
         offset="1"
         stop-color="#542F82"
         id="stop184" />
    </linearGradient>
    <linearGradient
       id="paint7_linear"
       x1="100.516"
       y1="135.777"
       x2="100.516"
       y2="335.777"
       gradientUnits="userSpaceOnUse"
       gradientTransform="translate(120,32)">
      <stop
         stop-color="white"
         id="stop187" />
      <stop
         offset="1"
         stop-color="#542F82"
         id="stop189" />
    </linearGradient>
    <linearGradient
       id="paint8_linear"
       x1="170.725"
       y1="59.112"
       x2="200.249"
       y2="59.112"
       gradientUnits="userSpaceOnUse"
       gradientTransform="translate(120,32)">
      <stop
         stop-color="#676767"
         id="stop192" />
      <stop
         offset="1"
         stop-color="#484848"
         id="stop194" />
    </linearGradient>
    <linearGradient
       id="paint9_linear"
       x1="170.725"
       y1="59.112"
       x2="200.249"
       y2="59.112"
       gradientUnits="userSpaceOnUse"
       gradientTransform="translate(120,32)">
      <stop
         stop-color="#676767"
         id="stop197" />
      <stop
         offset="1"
         stop-color="#484848"
         id="stop199" />
    </linearGradient>
    <linearGradient
       id="paint10_linear"
       x1="182.582"
       y1="52.2085"
       x2="188.39"
       y2="52.2085"
       gradientUnits="userSpaceOnUse"
       gradientTransform="translate(120,32)">
      <stop
         stop-color="#676767"
         id="stop202" />
      <stop
         offset="1"
         stop-color="#484848"
         id="stop204" />
    </linearGradient>
    <linearGradient
       id="paint11_linear"
       x1="182.582"
       y1="54.0558"
       x2="188.39"
       y2="54.0558"
       gradientUnits="userSpaceOnUse"
       gradientTransform="translate(120,32)">
      <stop
         stop-color="#676767"
         id="stop207" />
      <stop
         offset="1"
         stop-color="#484848"
         id="stop209" />
    </linearGradient>
    <linearGradient
       id="paint12_linear"
       x1="183.553"
       y1="47.0702"
       x2="187.425"
       y2="47.0702"
       gradientUnits="userSpaceOnUse"
       gradientTransform="translate(120,32)">
      <stop
         stop-color="#676767"
         id="stop212" />
      <stop
         offset="1"
         stop-color="#484848"
         id="stop214" />
    </linearGradient>
    <linearGradient
       id="paint13_linear"
       x1="183.553"
       y1="47.0702"
       x2="187.425"
       y2="47.0702"
       gradientUnits="userSpaceOnUse"
       gradientTransform="translate(120,32)">
      <stop
         stop-color="#676767"
         id="stop217" />
      <stop
         offset="1"
         stop-color="#484848"
         id="stop219" />
    </linearGradient>
  </defs>
</svg>
